<svg width="28" height="28" viewBox="0 0 28 28" fill="none" xmlns="http://www.w3.org/2000/svg">
<path d="M3.0625 10.9375C2.58125 10.9375 2.1875 10.5437 2.1875 10.0625V9.1875C2.1875 8.70625 2.58125 8.3125 3.0625 8.3125H10.0625V10.9375H3.0625ZM3.5 11.8125V12.6875H6.5625C7.28438 12.6875 7.875 13.2781 7.875 14V14.875C7.875 15.5969 7.28438 16.1875 6.5625 16.1875H3.5V17.0625H6.5625C7.28438 17.0625 7.875 17.6531 7.875 18.375V19.25C7.875 19.9719 7.28438 20.5625 6.5625 20.5625H3.5V21.875H10.0625V11.8125H3.5ZM7 19.25V18.375C7 18.1344 6.80312 17.9375 6.5625 17.9375H3.5V19.6875H6.5625C6.80312 19.6875 7 19.4906 7 19.25ZM7 14.875V14C7 13.7594 6.80312 13.5625 6.5625 13.5625H3.5V15.3125H6.5625C6.80312 15.3125 7 15.1156 7 14.875ZM15.75 9.625H14C13.7594 9.625 13.5625 9.82187 13.5625 10.0625V11.8125C13.5625 12.0531 13.7594 12.25 14 12.25H15.75C15.9906 12.25 16.1875 12.0531 16.1875 11.8125V10.0625C16.1875 9.82187 15.9906 9.625 15.75 9.625ZM21 14.875H19.25C19.0094 14.875 18.8125 15.0719 18.8125 15.3125V17.0625C18.8125 17.3031 19.0094 17.5 19.25 17.5H21C21.2406 17.5 21.4375 17.3031 21.4375 17.0625V15.3125C21.4375 15.0719 21.2406 14.875 21 14.875ZM15.3125 20.5625V22.75H17.0625V20.125H15.75C15.5094 20.125 15.3125 20.3219 15.3125 20.5625ZM15.75 14.875H14C13.7594 14.875 13.5625 15.0719 13.5625 15.3125V17.0625C13.5625 17.3031 13.7594 17.5 14 17.5H15.75C15.9906 17.5 16.1875 17.3031 16.1875 17.0625V15.3125C16.1875 15.0719 15.9906 14.875 15.75 14.875ZM19.25 20.125H17.9375V22.75H19.6875V20.5625C19.6875 20.3219 19.4906 20.125 19.25 20.125ZM21 9.625H19.25C19.0094 9.625 18.8125 9.82187 18.8125 10.0625V11.8125C18.8125 12.0531 19.0094 12.25 19.25 12.25H21C21.2406 12.25 21.4375 12.0531 21.4375 11.8125V10.0625C21.4375 9.82187 21.2406 9.625 21 9.625ZM24.0625 7V22.75H20.5625V20.5625C20.5625 19.8406 19.9719 19.25 19.25 19.25H15.75C15.0281 19.25 14.4375 19.8406 14.4375 20.5625V22.75H10.9375V7H24.0625ZM17.0625 15.3125C17.0625 14.5906 16.4719 14 15.75 14H14C13.2781 14 12.6875 14.5906 12.6875 15.3125V17.0625C12.6875 17.7844 13.2781 18.375 14 18.375H15.75C16.4719 18.375 17.0625 17.7844 17.0625 17.0625V15.3125ZM17.0625 10.0625C17.0625 9.34062 16.4719 8.75 15.75 8.75H14C13.2781 8.75 12.6875 9.34062 12.6875 10.0625V11.8125C12.6875 12.5344 13.2781 13.125 14 13.125H15.75C16.4719 13.125 17.0625 12.5344 17.0625 11.8125V10.0625ZM22.3125 15.3125C22.3125 14.5906 21.7219 14 21 14H19.25C18.5281 14 17.9375 14.5906 17.9375 15.3125V17.0625C17.9375 17.7844 18.5281 18.375 19.25 18.375H21C21.7219 18.375 22.3125 17.7844 22.3125 17.0625V15.3125ZM22.3125 10.0625C22.3125 9.34062 21.7219 8.75 21 8.75H19.25C18.5281 8.75 17.9375 9.34062 17.9375 10.0625V11.8125C17.9375 12.5344 18.5281 13.125 19.25 13.125H21C21.7219 13.125 22.3125 12.5344 22.3125 11.8125V10.0625ZM24.9375 5.25C24.9375 4.76875 24.5438 4.375 24.0625 4.375H10.9375C10.4563 4.375 10.0625 4.76875 10.0625 5.25C10.0625 5.73125 10.4563 6.125 10.9375 6.125H24.0625C24.5438 6.125 24.9375 5.73125 24.9375 5.25ZM19.25 3.0625C19.25 2.34062 18.6594 1.75 17.9375 1.75H13.5625C12.8406 1.75 12.25 2.34062 12.25 3.0625V3.5H19.25V3.0625ZM1.75 24.5V25.375C1.75 25.8563 2.14375 26.25 2.625 26.25H25.375C25.8563 26.25 26.25 25.8563 26.25 25.375V24.5C26.25 24.0187 25.8563 23.625 25.375 23.625H2.625C2.14375 23.625 1.75 24.0187 1.75 24.5Z" fill="#5D3171"/>
</svg>
