<svg width="30" height="30" viewBox="0 0 30 30" fill="none" xmlns="http://www.w3.org/2000/svg">
<path d="M23.5734 23.522C23.5734 23.8079 23.4422 24.0751 23.2172 24.2532L21.2672 25.7954C21.2016 25.847 21.1266 25.8704 21.0516 25.8704C20.9484 25.8704 20.8453 25.8235 20.775 25.7392C20.6531 25.5845 20.6812 25.3642 20.8312 25.247L22.5703 23.8688H4.51406V25.7392C4.51406 25.9313 4.35469 26.0907 4.1625 26.0907C3.97031 26.0907 3.81094 25.9313 3.81094 25.7392V23.8688H1.75781C1.56562 23.8688 1.40625 23.7095 1.40625 23.5173C1.40625 23.3251 1.56562 23.1657 1.75781 23.1657H3.81563V4.93135L2.44219 6.66572C2.32031 6.81572 2.1 6.84385 1.95 6.72197C1.8 6.6001 1.77187 6.37979 1.89375 6.22979L3.43594 4.27979C3.60469 4.06416 3.86719 3.95635 4.13437 3.94697C4.14375 3.94697 4.15781 3.94229 4.16719 3.94229C4.17656 3.94229 4.18594 3.94697 4.19531 3.94697C4.4625 3.95166 4.72969 4.06416 4.90313 4.28447L6.44531 6.23447C6.56719 6.38447 6.53906 6.60947 6.38906 6.72666C6.32344 6.77822 6.24844 6.80166 6.17344 6.80166C6.07031 6.80166 5.96719 6.75479 5.89687 6.67041L4.51875 4.93135V23.1704H6.52031V19.0642C6.52031 18.7407 6.78281 18.4782 7.10625 18.4782H8.63906C8.9625 18.4782 9.225 18.7407 9.225 19.0642V23.1704H9.92813V16.7298C9.92813 16.4063 10.1906 16.1438 10.5141 16.1438H12.0469C12.3703 16.1438 12.6328 16.4063 12.6328 16.7298V23.1704H13.3359V15.1126C13.3359 14.7892 13.5984 14.5267 13.9219 14.5267H15.4547C15.7734 14.5267 16.0312 14.7845 16.0359 15.0985V23.1657H16.7438V15.1079C16.7438 15.1079 16.7438 15.0938 16.7438 15.0845V12.361C16.8094 12.436 16.8703 12.511 16.9406 12.5813C17.6437 13.2845 18.5109 13.772 19.4484 14.011V23.1704H22.5703L20.8359 21.797C20.6812 21.6751 20.6578 21.4548 20.7797 21.3048C20.9016 21.1548 21.1219 21.1267 21.2719 21.2485L23.2219 22.7907C23.4469 22.9688 23.5781 23.236 23.5781 23.522H23.5734ZM6.95156 15.5063C6.80156 15.3845 6.77813 15.1642 6.9 15.0095L9.3 12.0329C9.34219 11.9813 9.39844 11.9438 9.45938 11.9204L11.9391 11.086L16.2984 7.11572C16.5281 6.45479 16.9031 5.83135 17.4281 5.30635C18.3328 4.40166 19.5328 3.90479 20.8125 3.90479C22.0922 3.90479 23.2922 4.40166 24.1969 5.30635C25.1016 6.21104 25.5984 7.41572 25.5984 8.69072C25.5984 9.97041 25.1016 11.1704 24.1969 12.0751C22.3312 13.9407 19.2937 13.9407 17.4234 12.0751C16.3922 11.0392 15.9328 9.64697 16.0453 8.29229L12.3516 11.6579C12.3141 11.6907 12.2766 11.7142 12.2297 11.7282L9.77813 12.5532L7.43906 15.4501C7.36875 15.5345 7.26562 15.5813 7.16719 15.5813C7.0875 15.5813 7.0125 15.5579 6.94687 15.5017L6.95156 15.5063ZM17.5688 10.172C17.5688 10.5142 17.7703 10.8188 18.0844 10.9548L20.6766 12.0751C20.6766 12.0751 20.6859 12.0751 20.6906 12.0751C20.7281 12.0892 20.7656 12.0985 20.8078 12.0985C20.8078 12.0985 20.8125 12.0985 20.8172 12.0985C20.8594 12.0985 20.9016 12.0892 20.9438 12.0704C20.9438 12.0704 20.9484 12.0704 20.9531 12.0704L23.5453 10.9501C23.8594 10.8142 24.0609 10.5095 24.0609 10.1673V7.23291C24.0609 7.05947 23.9813 6.89541 23.85 6.78291C23.8172 6.74072 23.7797 6.69853 23.7281 6.67041L21.3094 5.39541C20.9906 5.25479 20.625 5.25479 20.2875 5.40479L17.925 6.67041C17.925 6.67041 17.8969 6.69385 17.8828 6.70791C17.8688 6.71729 17.85 6.72197 17.8359 6.73135C17.6672 6.84385 17.5641 7.03135 17.5641 7.23291V10.1673L17.5688 10.172ZM21.1688 11.2126L23.2687 10.3079C23.325 10.2845 23.3578 10.2329 23.3578 10.172V7.39229L21.1688 8.33916V11.2173V11.2126ZM22.6828 6.91416L21.0094 6.02822C20.8922 5.97666 20.7375 5.97666 20.6016 6.0376L18.9609 6.91885L20.8172 7.72041L22.6875 6.91416H22.6828ZM28.0594 14.4376C27.8438 14.2267 27.6328 14.0626 27.4406 13.9501C26.625 13.472 25.9688 12.9938 25.425 12.4923L25.2937 12.3751C25.2188 12.3095 25.1437 12.2438 25.0688 12.1782C24.9562 12.3142 24.8344 12.4501 24.7078 12.5767C24.4875 12.797 24.2484 12.9892 24 13.1673C24.0938 13.2751 24.1828 13.3829 24.2766 13.486L24.3516 13.5704C24.8484 14.1235 25.3219 14.7798 25.7953 15.5813C25.9312 15.8063 26.1 16.022 26.2875 16.2142C26.9719 16.8938 27.5297 16.922 28.1578 16.2985C28.7812 15.6751 28.7531 15.1173 28.0641 14.4329L28.0594 14.4376ZM18.3609 10.3079L20.4609 11.2126V8.33447L18.2719 7.3876V10.1673C18.2719 10.2282 18.3047 10.2798 18.3609 10.3032V10.3079Z" fill="#5D3171"/>
</svg>
