<svg width="30" height="30" viewBox="0 0 30 30" fill="none" xmlns="http://www.w3.org/2000/svg">
<path d="M20.1422 9.85772C20.4094 10.1249 20.5547 10.4765 20.5547 10.8515C20.5547 11.2265 20.4094 11.578 20.1422 11.8452C19.5937 12.3937 18.7031 12.3937 18.1547 11.8452C17.6062 11.2968 17.6062 10.4062 18.1547 9.85772C18.4266 9.58584 18.7875 9.44521 19.1484 9.44521C19.5094 9.44521 19.8703 9.58115 20.1422 9.85772ZM24.3094 10.8468C24.3094 11.1093 24.1031 11.3202 23.8406 11.3202H22.7812C22.5656 11.3202 22.3781 11.4655 22.3266 11.6765C22.2562 11.9671 22.1391 12.2483 21.9797 12.5202C21.8719 12.703 21.9 12.9374 22.0547 13.0874L22.8 13.8327C22.9828 14.0155 22.9828 14.3108 22.8 14.4937C22.6172 14.6765 22.3219 14.6765 22.1344 14.4937L21.3891 13.7483C21.2391 13.5983 21.0047 13.5655 20.8219 13.6733C20.55 13.8327 20.2687 13.9499 19.9781 14.0202C19.7672 14.0718 19.6219 14.2593 19.6219 14.4749V15.5343C19.6219 15.7921 19.4109 16.003 19.1531 16.003C18.8906 16.003 18.6797 15.7921 18.6797 15.5343V14.4749C18.6797 14.2593 18.5344 14.0718 18.3234 14.0202C18.0328 13.9499 17.7516 13.8327 17.4797 13.6733C17.4047 13.6312 17.325 13.6077 17.2406 13.6077C17.1187 13.6077 17.0016 13.6546 16.9078 13.7437L16.1625 14.489C15.9844 14.6671 15.675 14.6671 15.5016 14.489C15.4125 14.3999 15.3656 14.2827 15.3656 14.1562C15.3656 14.0296 15.4125 13.9124 15.5016 13.8233L16.2469 13.078C16.3969 12.928 16.4297 12.6937 16.3219 12.5108C16.1625 12.239 16.0453 11.9577 15.975 11.6671C15.9234 11.4562 15.7359 11.3108 15.5203 11.3108H14.4609C14.1984 11.3108 13.9922 11.1046 13.9922 10.8468C13.9922 10.5796 14.1984 10.3733 14.4609 10.3733H15.5203C15.7359 10.3733 15.9234 10.228 15.975 10.0171C16.0453 9.72647 16.1625 9.44521 16.3219 9.17334C16.4297 8.99053 16.4016 8.75615 16.2469 8.60615L15.5016 7.86084C15.4125 7.77178 15.3656 7.65459 15.3656 7.52803C15.3656 7.40146 15.4125 7.28428 15.5016 7.19521C15.6797 7.01709 15.9891 7.01709 16.1625 7.19521L16.9078 7.94053C17.0578 8.09053 17.2922 8.12334 17.475 8.01553C17.7469 7.85615 18.0281 7.73897 18.3187 7.66865C18.5297 7.61709 18.675 7.42959 18.675 7.21396V6.15459C18.675 5.89209 18.8812 5.68584 19.1437 5.68584C19.4062 5.68584 19.6172 5.89678 19.6172 6.15459V7.21396C19.6172 7.42959 19.7625 7.61709 19.9734 7.66865C20.2641 7.73897 20.5453 7.85615 20.8172 8.01553C21 8.12334 21.2344 8.09521 21.3844 7.94053L22.1297 7.19521C22.3125 7.0124 22.6078 7.0124 22.7953 7.19521C22.9781 7.37803 22.9781 7.67334 22.7953 7.85615L22.05 8.60146C21.9 8.75146 21.8672 8.98584 21.975 9.16865C22.1344 9.44053 22.2516 9.72178 22.3219 10.0124C22.3734 10.2233 22.5609 10.3687 22.7766 10.3687H23.8359C24.0984 10.3687 24.3047 10.5749 24.3047 10.8374L24.3094 10.8468ZM21.4922 10.8515C21.4922 10.2233 21.2484 9.6374 20.8078 9.19209C19.8937 8.27803 18.4078 8.27803 17.4937 9.19209C16.5797 10.1062 16.5797 11.5921 17.4937 12.5062C17.9484 12.9655 18.5484 13.1905 19.1531 13.1905C19.7578 13.1905 20.3531 12.9608 20.8125 12.5062C21.2531 12.0655 21.4969 11.4749 21.4969 10.8468L21.4922 10.8515ZM24.7828 16.4858C23.2781 17.9905 21.2766 18.8202 19.1484 18.8202C17.0203 18.8202 15.0187 17.9905 13.5141 16.4858C10.4062 13.378 10.4062 8.3249 13.5141 5.21709C16.6219 2.10928 21.6797 2.10928 24.7828 5.21709C27.8906 8.3249 27.8906 13.378 24.7828 16.4858ZM25.2469 10.8468C25.2469 10.0733 24.6094 9.44053 23.8406 9.44053H23.1281C23.0812 9.2999 23.0203 9.16396 22.9594 9.02803L23.4609 8.52646C24.0094 7.97803 24.0094 7.0874 23.4609 6.53896C22.9125 5.99053 22.0219 5.99053 21.4734 6.53896L20.9719 7.04053C20.8359 6.9749 20.7 6.91865 20.5594 6.87178V6.15928C20.5594 5.39053 19.9312 4.75771 19.1484 4.75303C18.375 4.75771 17.7422 5.39053 17.7422 6.15928V6.87178C17.6016 6.91865 17.4656 6.97959 17.3297 7.04053L16.8281 6.53896C16.2984 6.00928 15.3703 6.00928 14.8406 6.53896C14.5734 6.80615 14.4281 7.15771 14.4281 7.53271C14.4281 7.90771 14.5734 8.26397 14.8406 8.52646L15.3422 9.02803C15.2766 9.16396 15.2203 9.2999 15.1734 9.44053H14.4609C13.6922 9.44053 13.0594 10.0687 13.0547 10.8515C13.0547 11.6249 13.6922 12.253 14.4609 12.253H15.1734C15.2203 12.3937 15.2812 12.5296 15.3422 12.6655L14.8406 13.1671C14.5734 13.4343 14.4281 13.7858 14.4281 14.1608C14.4281 14.5358 14.5734 14.8921 14.8406 15.1546C15.3703 15.6843 16.2984 15.6843 16.8281 15.1546L17.3297 14.653C17.4656 14.7187 17.6016 14.7749 17.7422 14.8218V15.5343C17.7422 16.303 18.3703 16.9358 19.1531 16.9405C19.9266 16.9358 20.5594 16.303 20.5594 15.5343V14.8218C20.7 14.7749 20.8359 14.714 20.9719 14.653L21.4734 15.1546C22.0219 15.703 22.9125 15.703 23.4609 15.1546C24.0094 14.6062 24.0094 13.7155 23.4609 13.1671L22.9594 12.6655C23.025 12.5296 23.0812 12.3937 23.1281 12.253H23.8406C24.6094 12.253 25.2422 11.6249 25.2469 10.8421V10.8468ZM11.5219 17.1468L12.8484 18.4733C12.9609 18.5858 13.0594 18.7077 13.1484 18.839L13.9312 18.0562C13.5516 17.7796 13.1906 17.4843 12.8531 17.1468C12.5156 16.8093 12.2203 16.4437 11.9437 16.064L11.1609 16.8468C11.2922 16.9312 11.4141 17.0296 11.5266 17.1421L11.5219 17.1468ZM12.1875 19.139L10.8609 17.8124C10.3125 17.264 9.42187 17.264 8.87343 17.8124L2.90625 23.7796C2.35781 24.328 2.35781 25.2187 2.90625 25.7671L4.23281 27.0937C4.50468 27.3655 4.86562 27.5062 5.22656 27.5062C5.5875 27.5062 5.94843 27.3702 6.22031 27.0937L12.1875 21.1265C12.4547 20.8593 12.6 20.5077 12.6 20.1327C12.6 19.7577 12.4547 19.4062 12.1875 19.139Z" fill="#5D3171"/>
</svg>
