<svg width="28" height="28" viewBox="0 0 28 28" fill="none" xmlns="http://www.w3.org/2000/svg">
<path d="M5.6875 6.5625V4.375H6.5625V6.5625C6.5625 6.80312 6.36562 7 6.125 7C5.88438 7 5.6875 6.80312 5.6875 6.5625ZM10.5 7C10.7406 7 10.9375 6.80312 10.9375 6.5625V4.375H10.0625V6.5625C10.0625 6.80312 10.2594 7 10.5 7ZM14.875 7C15.1156 7 15.3125 6.80312 15.3125 6.5625V4.375H14.4375V6.5625C14.4375 6.80312 14.6344 7 14.875 7ZM17.0625 4.375H16.1875V6.5625C16.1875 7.28436 15.5969 7.875 14.875 7.875C14.1531 7.875 13.5625 7.28436 13.5625 6.5625V4.375H11.8125V6.5625C11.8125 7.28436 11.2219 7.875 10.5 7.875C9.77812 7.875 9.1875 7.28436 9.1875 6.5625V4.375H7.4375V6.5625C7.4375 7.28436 6.84688 7.875 6.125 7.875C5.40312 7.875 4.8125 7.28436 4.8125 6.5625V4.375H3.9375C2.73 4.375 1.75 5.355 1.75 6.5625V8.75H19.25V6.5625C19.25 5.355 18.27 4.375 17.0625 4.375ZM22.2155 12.5281L14.3965 20.3472C14.2102 20.5334 13.9944 20.683 13.7548 20.7917L13.0116 21.1295C13.0836 21.3707 13.125 21.6218 13.125 21.875C13.125 23.3225 11.9475 24.5 10.5 24.5C9.05249 24.5 7.875 23.3225 7.875 21.875C7.875 20.4275 9.05249 19.25 10.5 19.25C10.7049 19.25 10.9083 19.2766 11.1091 19.3236L11.4771 18.5141C11.5858 18.2744 11.7354 18.0586 11.9217 17.8723L19.7407 10.0533L22.2155 12.5281ZM12.25 21.875C12.25 21.747 12.2333 21.6199 12.2056 21.4959L10.6408 22.2072C10.5829 22.2337 10.5211 22.2465 10.4601 22.2465C10.3462 22.2465 10.2343 22.2023 10.1505 22.1183C10.0215 21.9893 9.98602 21.794 10.0616 21.628L10.7344 20.148C10.6564 20.1376 10.5784 20.125 10.5 20.125C9.53506 20.125 8.75 20.9101 8.75 21.875C8.75 22.8399 9.53506 23.625 10.5 23.625C11.4649 23.625 12.25 22.8399 12.25 21.875ZM23.4528 11.2908L20.978 8.81601L20.3593 9.43466L22.8342 11.9095L23.4528 11.2908ZM25.6183 9.74399L25.309 9.43467L25.6183 9.12534C25.949 8.79487 26.131 8.35523 26.131 7.88782C26.131 7.42042 25.949 6.981 25.6183 6.65052C24.9574 5.98914 23.8044 5.98914 23.1435 6.65052L21.5967 8.19736L24.0715 10.6722L24.6903 10.0533L24.9997 10.3626C25.5113 10.8745 25.5113 11.7072 24.9997 12.219L21.2873 15.9312C21.1164 16.1021 21.1164 16.3789 21.2873 16.5498C21.3728 16.6353 21.4847 16.678 21.5967 16.678C21.7086 16.678 21.8205 16.6353 21.906 16.5498L25.6183 12.8377C26.4711 11.9847 26.4711 10.597 25.6183 9.74399ZM11.8125 3.0625V4.375H10.9375V3.0625C10.9375 2.82188 10.7406 2.625 10.5 2.625C10.2594 2.625 10.0625 2.82188 10.0625 3.0625V4.375H9.1875V3.0625C9.1875 2.34062 9.77812 1.75 10.5 1.75C11.2219 1.75 11.8125 2.34062 11.8125 3.0625ZM7.4375 3.0625V4.375H6.5625V3.0625C6.5625 2.82188 6.36562 2.625 6.125 2.625C5.88438 2.625 5.6875 2.82188 5.6875 3.0625V4.375H4.8125V3.0625C4.8125 2.34062 5.40312 1.75 6.125 1.75C6.84688 1.75 7.4375 2.34062 7.4375 3.0625ZM16.1875 3.0625V4.375H15.3125V3.0625C15.3125 2.82188 15.1156 2.625 14.875 2.625C14.6344 2.625 14.4375 2.82188 14.4375 3.0625V4.375H13.5625V3.0625C13.5625 2.34062 14.1531 1.75 14.875 1.75C15.5969 1.75 16.1875 2.34062 16.1875 3.0625ZM19.25 16.731V24.0625C19.25 25.2686 18.2686 26.25 17.0625 26.25H3.9375C2.73138 26.25 1.75 25.2686 1.75 24.0625V9.625H18.9317L11.303 17.2537C11.042 17.5145 10.8324 17.817 10.6805 18.152L10.5788 18.3761C10.5523 18.3752 10.5261 18.375 10.5 18.375C8.57013 18.375 7 19.9451 7 21.875C7 23.8049 8.57013 25.375 10.5 25.375C12.4299 25.375 14 23.8049 14 21.875C14 21.7987 13.9972 21.722 13.9919 21.6451L14.1162 21.5885C14.4518 21.4364 14.7543 21.2269 15.0151 20.9658L19.25 16.731ZM3.9375 11.8125C3.9375 12.0541 4.13339 12.25 4.375 12.25H8.75C8.99161 12.25 9.1875 12.0541 9.1875 11.8125C9.1875 11.5709 8.99161 11.375 8.75 11.375H4.375C4.13339 11.375 3.9375 11.5709 3.9375 11.8125ZM3.9375 13.5625C3.9375 13.8041 4.13339 14 4.375 14H11.375C11.6166 14 11.8125 13.8041 11.8125 13.5625C11.8125 13.3209 11.6166 13.125 11.375 13.125H4.375C4.13339 13.125 3.9375 13.3209 3.9375 13.5625ZM4.375 15.75H9.625C9.86661 15.75 10.0625 15.5541 10.0625 15.3125C10.0625 15.0709 9.86661 14.875 9.625 14.875H4.375C4.13339 14.875 3.9375 15.0709 3.9375 15.3125C3.9375 15.5541 4.13339 15.75 4.375 15.75Z" fill="#5D3171"/>
</svg>
